<svg width="169px" height="47px" viewBox="0 0 169 47" version="1.1" xmlns="http://www.w3.org/2000/svg" xmlns:xlink="http://www.w3.org/1999/xlink">
    <g id="Group" fill="#FFFFFF">
        <path d="M0.88,0.632 L36.808,0.632 L36.808,11.936 L16.36,11.936 L16.36,18.056 L34.072,18.056 L34.072,29.648 L16.36,29.648 L16.36,47 L0.88,47 L0.88,0.632 Z M39.688,0.632 L75.76,0.632 L75.76,12.08 L55.168,12.08 L55.168,17.984 L73.096,17.984 L73.096,29.72 L55.168,29.72 L55.168,35.552 L75.76,35.552 L75.76,47 L39.688,47 L39.688,0.632 Z M79.72,0.632 L104.776,0.632 C110.392028,0.632 114.639986,2.17998452 117.52,5.276 C120.400014,8.37201548 121.84,12.4639746 121.84,17.552 C121.84,20.5760151 121.084008,23.2759881 119.572,25.652 C118.059992,28.0280119 116.032013,29.9599926 113.488,31.448 C114.400005,32.1680036 115.167997,33.223993 115.792,34.616 L121.192,47 L105.064,47 L100.312,36.272 C99.9759983,35.5519964 99.604002,35.0480014 99.196,34.76 C98.787998,34.4719986 98.2000038,34.328 97.432,34.328 L95.2,34.328 L95.2,47 L79.72,47 L79.72,0.632 Z M125.88,17.132 C132.92502,12.7986667 139.92502,10.632 146.88,10.632 C153.83498,10.632 160.83498,12.7986667 167.88,17.132 C160.88,21.4653333 153.88,23.632 146.88,23.632 C139.88,23.632 132.88,21.4653333 125.88,17.132 Z M126.16,0.632 L151.216,0.632 C156.832028,0.632 161.079986,2.17998452 163.96,5.276 C166.840014,8.37201548 168.28,12.4639746 168.28,17.552 C168.28,20.5760151 167.524008,23.2759881 166.012,25.652 C164.499992,28.0280119 162.472013,29.9599926 159.928,31.448 C160.840005,32.1680036 161.607997,33.223993 162.232,34.616 L167.632,47 L151.504,47 L146.752,36.272 C146.415998,35.5519964 146.044002,35.0480014 145.636,34.76 C145.227998,34.4719986 144.640004,34.328 143.872,34.328 L141.64,34.328 L141.64,47 L126.16,47 L126.16,0.632 Z M79.88,17.132 C86.9250199,12.7986667 93.9250199,10.632 100.88,10.632 C107.83498,10.632 114.83498,12.7986667 121.88,17.132 C114.88,21.4653333 107.88,23.632 100.88,23.632 C93.88,23.632 86.88,21.4653333 79.88,17.132 Z" id="FERR"></path>
        <circle id="Oval" cx="100.5" cy="17.5" r="7.5"></circle>
        <circle id="Oval" cx="145.5" cy="17.5" r="7.5"></circle>
    </g>
</svg>